<svg xmlns="http://www.w3.org/2000/svg" width="43.173" height="43.172" viewBox="0 0 43.173 43.172">
  <path id="WhatsApp" d="M3523.771,3510.208a21.23,21.23,0,0,1-31.439,18.414l-11.734,3.728,3.825-11.283a20.818,20.818,0,0,1-3.041-10.859,21.2,21.2,0,0,1,42.389,0Zm-21.194-17.681a17.77,17.77,0,0,0-17.819,17.681,17.5,17.5,0,0,0,3.394,10.367l-2.226,6.566,6.848-2.177a17.728,17.728,0,1,0,9.8-32.437Zm10.7,22.524c-.131-.214-.477-.343-1-.6s-3.074-1.5-3.55-1.677-.823-.258-1.17.258-1.341,1.677-1.645,2.02-.606.388-1.125.13a14.213,14.213,0,0,1-4.178-2.559,15.524,15.524,0,0,1-2.89-3.569c-.3-.516-.032-.795.228-1.051.233-.232.519-.6.779-.9a3.5,3.5,0,0,0,.519-.86.94.94,0,0,0-.043-.9c-.13-.258-1.169-2.795-1.6-3.827s-.865-.859-1.168-.859-.65-.043-1-.043a1.914,1.914,0,0,0-1.386.644,5.764,5.764,0,0,0-1.818,4.3,9.975,9.975,0,0,0,2.122,5.331c.259.343,3.593,5.718,8.873,7.782s5.283,1.375,6.236,1.289,3.073-1.247,3.506-2.451A4.29,4.29,0,0,0,3513.279,3515.051Z" transform="translate(-3480.598 -3489.178)" fill="#231f20" fill-rule="evenodd"/>
</svg>
