<svg xmlns="http://www.w3.org/2000/svg" width="41.149" height="41.157" viewBox="0 0 41.149 41.157">
  <g id="Group_201" data-name="Group 201" transform="translate(-3554.097 -3489.174)">
    <path id="Path_527" data-name="Path 527" d="M3595.141,3501.274a15.025,15.025,0,0,0-.957-4.993,10.023,10.023,0,0,0-2.38-3.65,10.132,10.132,0,0,0-3.642-2.372,15.079,15.079,0,0,0-4.992-.956c-2.2-.1-2.9-.129-8.491-.129s-6.287.024-8.482.12a15.075,15.075,0,0,0-4.993.957,10.546,10.546,0,0,0-6.022,6.022,15.115,15.115,0,0,0-.957,4.993c-.1,2.2-.128,2.9-.128,8.49s.024,6.288.12,8.483a15.068,15.068,0,0,0,.957,4.993,10.543,10.543,0,0,0,6.022,6.022,15.084,15.084,0,0,0,4.993.956c2.2.1,2.9.121,8.482.121s6.288-.024,8.483-.121a15.034,15.034,0,0,0,4.992-.956,10.528,10.528,0,0,0,6.022-6.022,15.062,15.062,0,0,0,.957-4.993c.1-2.2.121-2.9.121-8.483S3595.238,3503.469,3595.141,3501.274Zm-3.706,16.8a11.279,11.279,0,0,1-.708,3.819,6.822,6.822,0,0,1-3.907,3.907,11.321,11.321,0,0,1-3.819.708c-2.171.1-2.822.12-8.314.12s-6.15-.024-8.313-.12a11.269,11.269,0,0,1-3.819-.708,6.323,6.323,0,0,1-2.364-1.535,6.417,6.417,0,0,1-1.536-2.364,11.328,11.328,0,0,1-.707-3.819c-.1-2.171-.121-2.822-.121-8.314s.024-6.15.121-8.313a11.281,11.281,0,0,1,.707-3.819,6.278,6.278,0,0,1,1.544-2.364,6.387,6.387,0,0,1,2.364-1.535,11.326,11.326,0,0,1,3.819-.708c2.171-.1,2.822-.12,8.313-.12s6.151.024,8.314.12a11.277,11.277,0,0,1,3.819.708,6.326,6.326,0,0,1,2.363,1.535,6.406,6.406,0,0,1,1.536,2.364,11.328,11.328,0,0,1,.708,3.819c.1,2.171.12,2.822.12,8.313S3591.531,3515.907,3591.435,3518.078Z" fill="#231f20"/>
    <path id="Path_528" data-name="Path 528" d="M3574.679,3499.184a10.573,10.573,0,1,0,10.573,10.572A10.574,10.574,0,0,0,3574.679,3499.184Zm0,17.431a6.859,6.859,0,1,1,6.858-6.859A6.86,6.86,0,0,1,3574.679,3516.615Z" fill="#231f20"/>
    <path id="Path_529" data-name="Path 529" d="M3588.138,3498.766a2.468,2.468,0,1,1-2.468-2.469A2.468,2.468,0,0,1,3588.138,3498.766Z" fill="#231f20"/>
  </g>
</svg>
