<svg xmlns="http://www.w3.org/2000/svg" width="41.149" height="41.149" viewBox="0 0 41.149 41.149">
  <path id="Facebook_alt_" data-name="Facebook (alt)" d="M3670.094,3496.036a7.107,7.107,0,0,0-6.858-6.858H3635.8a7.108,7.108,0,0,0-6.859,6.858v27.432a7.108,7.108,0,0,0,6.859,6.859h13.716v-15.545h-5.03v-6.859h5.03v-2.671c0-4.609,3.461-8.759,7.715-8.759h5.544v6.858h-5.544a1.678,1.678,0,0,0-1.314,1.84v2.732h6.858v6.859h-6.858v15.545h7.315a7.107,7.107,0,0,0,6.858-6.859Z" transform="translate(-3628.945 -3489.178)" fill="#231f20"/>
</svg>
