<svg width="709" height="426" viewBox="0 0 709 426" fill="none" xmlns="http://www.w3.org/2000/svg">
<path fill-rule="evenodd" clip-rule="evenodd" d="M259.677 417.429C79.2743 406.862 -65.4027 214.785 30.5946 103.313C105.046 16.8585 204.316 142.698 296.904 79.2978C439.347 -18.2403 670.12 -35.9745 700.665 86.9827C731.209 209.94 630.029 402.059 554.623 413.587C479.215 425.114 259.677 417.429 259.677 417.429Z" fill="#25CFC5" fill-opacity="0.24"/>
<path fill-rule="evenodd" clip-rule="evenodd" d="M262.44 393.095C262.44 393.095 293.082 399.323 294.662 398.995C296.241 398.667 329.727 383.262 333.201 385.557C336.677 387.851 356.894 396.701 361.317 398.667C365.739 400.634 358.789 401.29 355.315 401.29C351.84 401.29 331.938 392.768 329.727 394.407C327.515 396.046 347.101 399.323 347.101 400.634C347.101 401.945 294.662 414.4 291.503 414.4C288.344 414.4 264.02 412.106 264.02 412.106L262.44 393.095Z" fill="#E38540"/>
<path fill-rule="evenodd" clip-rule="evenodd" d="M234.959 223.329C252.585 226.675 262.958 244.726 266.331 260.537C269.704 276.347 234.959 223.329 234.959 223.329Z" fill="#6791C9"/>
<mask id="mask0" mask-type="alpha" maskUnits="userSpaceOnUse" x="0" y="0" width="708" height="421">
<path fill-rule="evenodd" clip-rule="evenodd" d="M260.466 418.428C79.8787 407.844 -64.9453 215.434 31.1494 103.769C70.5525 57.9816 116.9 71.6386 165.532 85.2963C208.883 97.4706 254.049 109.644 297.729 79.7132C440.317 -17.9932 671.325 -35.758 701.9 87.4114C732.476 210.58 631.193 403.032 555.711 414.579C480.226 426.126 260.466 418.428 260.466 418.428Z" fill="white"/>
</mask>
<g mask="url(#mask0)">
<path fill-rule="evenodd" clip-rule="evenodd" d="M282.811 157.181C284.716 203.399 284.239 228.433 267.575 247.69C250.911 266.947 204.252 262.132 204.252 262.132C204.252 262.132 199.649 330.174 134.421 333.063C69.1918 335.951 59.8281 248.332 110.932 225.865C159.579 204.478 175.049 198.263 191.872 145.306C207.241 96.9275 255.197 106.15 266.623 126.37C278.05 146.59 282.811 157.181 282.811 157.181Z" fill="#303C60"/>
<path fill-rule="evenodd" clip-rule="evenodd" d="M208.869 211.542C208.869 211.542 176.86 233.194 159.661 243.778C142.463 254.363 165.872 368.391 171.605 410.73C177.338 453.07 276.708 414.579 276.708 414.579C276.708 414.579 270.02 378.975 278.619 321.722C284.779 280.71 262.216 255.004 249.317 237.202C216.762 192.274 208.869 211.542 208.869 211.542Z" fill="#34A1A2"/>
<path fill-rule="evenodd" clip-rule="evenodd" d="M177.337 244.26C214.124 289.486 226.558 297.941 217.468 328.457C210.302 352.514 207.913 361.174 206.48 369.354C205.047 377.532 274.797 364.061 274.797 364.061L274.319 390.523C274.319 390.523 219.379 416.985 192.625 422.277C165.872 427.57 149.151 421.316 149.151 421.316L177.337 244.26Z" fill="white" fill-opacity="0.21"/>
</g>
<path fill-rule="evenodd" clip-rule="evenodd" d="M637.358 425.477H202.175C199.034 425.477 196.487 422.997 196.487 419.938C196.487 416.88 199.034 414.4 202.175 414.4H637.358C640.5 414.4 643.047 416.88 643.047 419.938C643.047 422.997 640.5 425.477 637.358 425.477Z" fill="#2E5B9A"/>
<path fill-rule="evenodd" clip-rule="evenodd" d="M221.26 166.562L204.73 216.233C204.73 216.233 222.849 266.067 238.107 254.939C243.316 251.14 236.2 221.072 236.2 221.072L247.325 180.754L221.26 166.562Z" fill="#F9A17B"/>
<path fill-rule="evenodd" clip-rule="evenodd" d="M165.999 242.747C143.138 245.306 141.167 276.422 130.661 328.38C120.154 380.336 123.312 414.631 128.273 421.228C140.211 437.104 274.403 381.779 291.117 382.26C302.653 382.593 293.027 363.018 293.027 363.018L165.044 382.742C165.044 382.742 183.191 322.606 183.191 291.818C183.191 261.028 174.595 241.784 165.999 242.747Z" fill="#F9A17B"/>
<path fill-rule="evenodd" clip-rule="evenodd" d="M286.146 363.53C299.701 360.109 319.549 352.29 323.421 355.711C327.294 359.132 343.269 383.568 348.595 390.41C353.919 397.251 346.174 391.875 340.365 386.5C334.556 381.124 329.715 378.192 329.715 378.192C329.715 378.192 322.453 385.034 315.676 388.944C308.899 392.853 306.478 385.034 294.86 383.079C283.241 381.124 254.196 391.387 254.196 391.387L286.146 363.53Z" fill="#F9A17B"/>
<path fill-rule="evenodd" clip-rule="evenodd" d="M168.839 238.99C154.79 239.631 143.934 251.486 140.102 269.75C136.27 288.014 125.094 346.012 125.094 346.012C125.094 346.012 122.86 347.614 146.168 351.779C169.478 355.945 188.636 351.138 188.636 351.138C188.636 351.138 193.425 318.135 192.148 295.385C190.871 272.634 185.762 251.166 177.46 243.796C169.158 236.426 168.839 238.99 168.839 238.99Z" fill="#34A1A2"/>
<path fill-rule="evenodd" clip-rule="evenodd" d="M235.645 220.777L247.326 180.677L219.958 166.562L215.778 178.461C214.868 218.3 225.485 231.624 232.64 236.496C234.875 238.018 236.797 236.842 238.408 234.357C237.232 227.135 235.645 220.777 235.645 220.777Z" fill="#E6795D"/>
<path fill-rule="evenodd" clip-rule="evenodd" d="M288.547 170.216C288.547 191.863 286.019 218.405 267.656 217.779C239.169 216.808 221.219 194.172 221.219 172.526C221.219 150.879 236.113 133.331 254.486 133.331C272.859 133.331 288.547 148.57 288.547 170.216Z" fill="#F9A17B"/>
<path fill-rule="evenodd" clip-rule="evenodd" d="M502.125 413.016H394.347L438.68 315.242C439.974 312.388 442.811 310.557 445.938 310.557H543.75C546.016 310.557 547.518 312.902 546.582 314.968L502.125 413.016Z" fill="#BBD2CF"/>
<path fill-rule="evenodd" clip-rule="evenodd" d="M501.521 413.015H303.661C303.661 406.898 309.249 401.939 316.143 401.939H501.521V413.015Z" fill="#BBD2CF"/>
<path fill-rule="evenodd" clip-rule="evenodd" d="M543.736 310.557H457.157C454.017 310.557 451.166 312.388 449.867 315.242L405.339 413.016H501.927L546.58 314.968C547.52 312.902 546.011 310.557 543.736 310.557Z" fill="white"/>
<ellipse rx="7.9656" ry="14.6776" transform="matrix(0.889596 0.456748 -0.451241 0.892402 485.486 360.681)" fill="#E4EAF8"/>
<path fill-rule="evenodd" clip-rule="evenodd" d="M256.837 125.103C277.027 123.638 288.983 142.6 292.467 159.201C294.98 171.179 293.733 173.524 293.733 173.524C293.733 173.524 291.516 176.779 275.681 177.756C259.846 178.732 257.946 178.407 257.946 178.407L256.996 159.527L252.245 177.756C252.245 177.756 249.711 181.337 239.894 176.453C230.076 171.571 225.642 155.295 225.642 155.295C225.642 155.295 223.425 144.553 231.026 137.391C238.626 130.231 256.837 125.103 256.837 125.103Z" fill="#303C60"/>
<path fill-rule="evenodd" clip-rule="evenodd" d="M242.881 175.04C240.918 187.937 230.552 197.075 219.727 195.45C208.902 193.826 201.717 182.054 203.68 169.158C205.643 156.262 216.009 147.124 226.834 148.749C237.659 150.372 244.843 162.144 242.881 175.04Z" fill="#F0B226"/>
<path fill-rule="evenodd" clip-rule="evenodd" d="M235.98 174.501C234.115 186.663 225.379 195.446 216.468 194.12C207.557 192.792 201.845 181.858 203.71 169.697C205.575 157.535 214.312 148.752 223.222 150.078C232.134 151.405 237.846 162.34 235.98 174.501Z" fill="#FEC63B"/>
<path fill-rule="evenodd" clip-rule="evenodd" d="M220.973 172.33C220.021 178.809 216.593 183.649 213.313 183.139C210.035 182.629 208.148 176.963 209.099 170.483C210.05 164.003 213.479 159.164 216.758 159.675C220.037 160.184 221.924 165.851 220.973 172.33Z" fill="#F2E5DE"/>
<path fill-rule="evenodd" clip-rule="evenodd" d="M219.845 148.589C228.987 112.842 260.545 118.055 268.524 123.032C275.243 127.223 276.18 133.14 276.18 133.14C276.18 133.14 267.508 125.744 252.741 128.456C238.727 131.029 230.393 139.714 229.221 149.329C228.624 154.23 219.845 148.589 219.845 148.589Z" fill="#F0B226"/>
<path fill-rule="evenodd" clip-rule="evenodd" d="M77.6863 262.097L77.6153 262.094C77.2081 262.055 76.9101 261.694 76.949 261.288C77.79 252.499 82.1911 243.466 89.3416 235.851C97.4263 227.241 108.932 220.457 122.615 216.234C153.104 206.824 179.702 194.858 196.415 143.534C196.542 143.146 196.959 142.934 197.349 143.06C197.737 143.186 197.95 143.603 197.824 143.991C190.143 167.579 179.687 184.752 165.86 196.492C153.665 206.847 139.927 212.437 123.053 217.646C109.615 221.793 98.3315 228.438 90.422 236.862C83.4942 244.24 79.2331 252.964 78.423 261.428C78.386 261.81 78.0639 262.097 77.6863 262.097Z" fill="#303C60"/>
<path fill-rule="evenodd" clip-rule="evenodd" d="M91.4207 224.713C91.2017 224.713 90.9845 224.616 90.8402 224.432C90.5912 224.114 90.6499 223.658 90.9705 223.412C91.0989 223.313 104.015 213.518 122.69 209.443C158.543 201.619 182.614 180.268 192.299 147.698C192.414 147.313 192.821 147.094 193.211 147.206C193.6 147.32 193.823 147.724 193.708 148.109C187.724 168.23 176.467 184.109 160.25 195.305C149.807 202.515 137.276 207.749 123.005 210.863C104.667 214.865 91.9951 224.465 91.8697 224.561C91.7363 224.664 91.5773 224.713 91.4207 224.713Z" fill="#303C60"/>
<path fill-rule="evenodd" clip-rule="evenodd" d="M550.812 213.636H453.217C452.302 213.636 451.83 212.907 452.163 212.007L471.959 158.498C472.292 157.598 473.303 156.869 474.218 156.869H571.814C572.728 156.869 573.197 157.598 572.864 158.498L553.072 212.007C552.738 212.907 551.726 213.636 550.812 213.636Z" fill="#34A1A2"/>
<path fill-rule="evenodd" clip-rule="evenodd" d="M550.107 212.252H457.256C456.406 212.252 455.969 211.56 456.277 210.706L474.199 161.185C474.509 160.33 475.448 159.638 476.297 159.638H569.146C569.993 159.638 570.435 160.33 570.122 161.185L552.206 210.706C551.893 211.56 550.954 212.252 550.107 212.252Z" fill="white"/>
<path fill-rule="evenodd" clip-rule="evenodd" d="M548.266 209.482H461.506C460.556 209.482 460.065 208.689 460.411 207.709L475.788 164.18C476.134 163.201 477.185 162.407 478.135 162.407H564.896C565.843 162.407 566.337 163.201 565.989 164.18L550.612 207.709C550.27 208.689 549.213 209.482 548.266 209.482Z" fill="#25CFC5"/>
<path fill-rule="evenodd" clip-rule="evenodd" d="M530.708 185.945C527.463 195.121 517.613 202.56 508.703 202.56C499.793 202.56 495.198 195.121 498.437 185.945C501.683 176.768 511.538 169.33 520.449 169.33C529.359 169.33 533.954 176.768 530.708 185.945Z" fill="white"/>
<path fill-rule="evenodd" clip-rule="evenodd" d="M528.087 185.253C525.228 193.282 516.56 199.791 508.718 199.791C500.876 199.791 496.835 193.282 499.688 185.253C502.541 177.224 511.216 170.715 519.057 170.715C526.893 170.715 530.941 177.224 528.087 185.253Z" fill="#9EC8FF"/>
<path fill-rule="evenodd" clip-rule="evenodd" d="M519.384 184.56L513.891 187.33L508.392 190.099L510.304 184.56L512.211 179.022L519.384 184.56Z" fill="white"/>
<path fill-rule="evenodd" clip-rule="evenodd" d="M403.12 138.863C401.42 138.863 399.376 140.323 398.746 141.987L396.03 149.157C395.773 149.836 395.786 150.447 396.067 150.831C396.371 151.249 396.931 151.336 397.348 151.336H404.811C406.54 151.336 408.543 149.905 409.184 148.212L411.9 141.042C412.158 140.363 412.144 139.753 411.863 139.367C411.56 138.951 410.999 138.863 410.582 138.863H403.12ZM404.811 154.099H397.349C395.817 154.099 394.491 153.486 393.711 152.417C392.885 151.283 392.745 149.75 393.328 148.212L396.044 141.042C397.093 138.271 400.202 136.1 403.12 136.1H410.582C412.115 136.1 413.44 136.713 414.219 137.783C415.045 138.917 415.185 140.449 414.602 141.987L411.886 149.157C410.837 151.929 407.728 154.099 404.811 154.099Z" fill="#3EC8E9"/>
<path fill-rule="evenodd" clip-rule="evenodd" d="M392.128 170.709C390.428 170.709 388.384 172.169 387.754 173.833L385.038 181.003C384.781 181.682 384.794 182.292 385.075 182.678C385.378 183.094 385.94 183.181 386.357 183.181H393.819C395.548 183.181 397.551 181.751 398.192 180.058L400.909 172.888C401.166 172.209 401.152 171.598 400.871 171.213C400.568 170.796 400.007 170.709 399.589 170.709H392.128ZM393.818 185.945H386.356C384.824 185.945 383.499 185.332 382.719 184.263C381.892 183.129 381.753 181.596 382.336 180.058L385.051 172.888C386.101 170.117 389.209 167.946 392.128 167.946H399.589C401.122 167.946 402.447 168.559 403.227 169.628C404.054 170.763 404.193 172.295 403.61 173.833L400.894 181.003C399.844 183.774 396.737 185.945 393.818 185.945Z" fill="#3EC8E9"/>
<path fill-rule="evenodd" clip-rule="evenodd" d="M379.762 202.554C378.032 202.554 376.029 203.984 375.388 205.678L372.672 212.847C372.415 213.527 372.429 214.137 372.709 214.523C373.013 214.939 373.574 215.027 373.991 215.027H381.453C383.182 215.027 385.185 213.596 385.826 211.903L388.543 204.733C388.8 204.054 388.786 203.443 388.505 203.058C388.202 202.641 387.641 202.554 387.224 202.554H379.762ZM381.452 217.79H373.99C372.457 217.79 371.132 217.176 370.353 216.107C369.526 214.973 369.386 213.441 369.969 211.903L372.685 204.733C373.735 201.961 376.843 199.791 379.761 199.791H387.223C388.755 199.791 390.081 200.404 390.861 201.473C391.687 202.607 391.826 204.14 391.244 205.678L388.528 212.847C387.479 215.619 384.37 217.79 381.452 217.79Z" fill="#34A1A2"/>
<path fill-rule="evenodd" clip-rule="evenodd" d="M466.487 147.176H424.21C423.418 147.176 423.005 146.554 423.294 145.792C423.582 145.03 424.467 144.407 425.259 144.407H467.536C468.329 144.407 468.741 145.03 468.453 145.792C468.164 146.554 467.279 147.176 466.487 147.176Z" fill="#25CFC5"/>
<path fill-rule="evenodd" clip-rule="evenodd" d="M454.12 176.253H411.843C411.051 176.253 410.639 175.63 410.928 174.868C411.216 174.107 412.1 173.484 412.893 173.484H455.17C455.963 173.484 456.375 174.107 456.086 174.868C455.798 175.63 454.913 176.253 454.12 176.253Z" fill="#25CFC5"/>
<path fill-rule="evenodd" clip-rule="evenodd" d="M443.128 210.867H400.851C400.059 210.867 399.646 210.244 399.935 209.483C400.223 208.721 401.108 208.099 401.901 208.099H444.177C444.97 208.099 445.382 208.721 445.094 209.483C444.805 210.244 443.921 210.867 443.128 210.867Z" fill="#25CFC5"/>
<path fill-rule="evenodd" clip-rule="evenodd" d="M404.012 148.561C403.888 148.561 403.763 148.545 403.641 148.512C403.216 148.395 402.869 148.085 402.704 147.674L399.945 140.783C399.654 140.057 400.004 139.232 400.725 138.94C401.447 138.648 402.268 138.999 402.558 139.725L404.624 144.882L420.932 132.241C421.548 131.764 422.433 131.878 422.908 132.498C423.383 133.118 423.268 134.007 422.653 134.484L404.871 148.267C404.622 148.46 404.319 148.561 404.012 148.561Z" fill="#29A8D4"/>
<path fill-rule="evenodd" clip-rule="evenodd" d="M391.646 181.792C391.522 181.792 391.398 181.776 391.275 181.742C390.851 181.626 390.504 181.315 390.339 180.904L387.579 174.013C387.289 173.287 387.638 172.462 388.36 172.17C389.082 171.878 389.902 172.229 390.193 172.955L392.258 178.112L408.567 165.471C409.183 164.994 410.067 165.108 410.542 165.728C411.018 166.347 410.903 167.236 410.286 167.714L392.506 181.497C392.256 181.69 391.953 181.792 391.646 181.792Z" fill="#29A8D4"/>
<path fill-rule="evenodd" clip-rule="evenodd" d="M669.086 109.793H507.017L511.206 98.7163H673.275L669.086 109.793Z" fill="#25CFC5"/>
<path fill-rule="evenodd" clip-rule="evenodd" d="M663.591 126.408H501.521L505.71 115.332H667.779L663.591 126.408Z" fill="#25CFC5"/>
<path fill-rule="evenodd" clip-rule="evenodd" d="M485.162 264.866H367.45C365.911 264.866 365.111 263.62 365.67 262.096C366.23 260.573 367.947 259.327 369.485 259.327H487.197C488.738 259.327 489.536 260.573 488.976 262.096C488.415 263.62 486.703 264.866 485.162 264.866Z" fill="#25CFC5"/>
<path fill-rule="evenodd" clip-rule="evenodd" d="M479.665 277.327H361.954C360.415 277.327 359.615 276.081 360.175 274.558C360.735 273.035 362.451 271.789 363.989 271.789H481.701C483.237 271.789 484.041 273.035 483.48 274.558C482.92 276.081 481.202 277.327 479.665 277.327Z" fill="#25CFC5"/>
<path fill-rule="evenodd" clip-rule="evenodd" d="M590.975 383.912C590.975 381.915 615.324 315.435 598.859 272.639C587.333 242.673 585.512 206.714 585.512 206.714C585.512 206.714 563.065 238.478 578.233 287.022C587.57 316.901 591.381 325.179 592.185 333.969C592.996 342.759 588.549 386.709 588.549 386.709L590.975 383.912Z" fill="#34A1A2"/>
<path fill-rule="evenodd" clip-rule="evenodd" d="M584.754 209.801C582.837 212.941 579.12 219.813 576.419 229.648C572.935 242.316 570.481 262.638 578.55 287.502C581.827 297.591 584.423 305.152 586.515 311.228C590.634 323.209 592.512 328.676 593.075 334.575C593.807 342.261 590.485 375.803 589.533 385.093L590.303 384.242C590.394 383.802 590.666 382.926 591.353 380.73C605.955 334.316 608.364 298.274 598.502 273.606C588.361 248.233 585.414 218.246 584.754 209.801ZM588.523 388.094C588.419 388.094 588.316 388.074 588.212 388.034C587.901 387.908 587.713 387.603 587.746 387.281C587.791 386.843 592.35 343.325 591.528 334.709C590.977 328.977 589.119 323.559 585.039 311.687C582.947 305.607 580.344 298.039 577.067 287.938C568.875 262.708 571.388 242.073 574.93 229.204C578.783 215.236 584.495 207.358 584.735 207.03C584.922 206.771 585.266 206.656 585.583 206.742C585.907 206.83 586.127 207.101 586.146 207.416C586.166 207.774 588.167 243.589 599.959 273.081C606.351 289.077 607.633 310.17 603.773 335.775C600.691 356.218 595.193 373.692 592.842 381.153C592.311 382.854 591.845 384.322 591.819 384.592C591.819 384.769 591.754 384.907 591.631 385.04L589.112 387.836C588.957 388.003 588.743 388.094 588.523 388.094Z" fill="#29B2D6"/>
<path fill-rule="evenodd" clip-rule="evenodd" d="M595.416 392.02C591.819 317.515 609.397 276.839 645.347 244.62C681.298 212.401 682.893 203.944 682.893 203.944C682.893 203.944 677.301 266.77 656.532 288.518C635.758 310.265 605.399 326.375 601.008 337.651C596.61 348.927 598.212 386.784 598.212 386.784L595.416 393.631V392.02Z" fill="#34A1A2"/>
<path fill-rule="evenodd" clip-rule="evenodd" d="M590.847 396.401C590.452 395.223 598.461 328.474 627.695 324.548C656.936 320.621 663.741 327.297 683.767 324.155C698.057 321.914 709 317.48 709 317.48C709 317.48 701.417 336.405 675.357 344.18C656.936 349.677 632.901 340.646 618.883 343.002C604.865 345.358 597.658 374.806 597.658 374.806L595.256 390.119L590.847 396.401Z" fill="#34A1A2"/>
<path fill-rule="evenodd" clip-rule="evenodd" d="M594.676 388.093C594.306 388.093 593.985 387.804 593.955 387.419C593.906 386.94 589.837 339.069 609.77 302.418C620.073 283.485 631.316 272.513 642.189 261.902C652.323 252.018 661.892 242.681 669.145 227.891C669.327 227.525 669.764 227.378 670.121 227.56C670.485 227.743 670.631 228.189 670.449 228.555C663.081 243.574 653.42 252.997 643.196 262.973C632.402 273.508 621.238 284.401 611.044 303.136C591.329 339.381 595.355 386.808 595.398 387.283C595.44 387.691 595.143 388.052 594.743 388.09L594.676 388.093Z" fill="#29B2D6"/>
<path fill-rule="evenodd" clip-rule="evenodd" d="M592.945 377.017C592.878 377.017 592.804 377.007 592.737 376.986C592.351 376.871 592.125 376.457 592.235 376.06C599.834 349.406 608.552 333.855 619.669 327.12C629.611 321.098 639.889 322.946 650.768 324.903C653.429 325.382 656.182 325.878 658.911 326.241C682.545 329.398 694.078 323.55 694.188 323.49C694.549 323.303 694.99 323.447 695.179 323.813C695.363 324.179 695.222 324.629 694.861 324.819C694.384 325.071 682.876 330.95 658.715 327.724C655.962 327.356 653.19 326.857 650.511 326.375C639.908 324.468 629.898 322.667 620.421 328.405C609.641 334.934 601.131 350.209 593.648 376.477C593.557 376.804 593.263 377.017 592.945 377.017Z" fill="#3CC3E5"/>
<path fill-rule="evenodd" clip-rule="evenodd" d="M631.403 275.942C631.187 275.942 630.97 275.848 630.832 275.669C630.586 275.363 630.646 274.923 630.958 274.687C631.097 274.583 644.95 264.314 664.172 260.725C664.562 260.653 664.941 260.901 665.019 261.281C665.091 261.661 664.839 262.029 664.448 262.102C645.557 265.629 631.973 275.695 631.841 275.796C631.709 275.894 631.553 275.942 631.403 275.942Z" fill="#29B2D6"/>
<path fill-rule="evenodd" clip-rule="evenodd" d="M608.069 307.788C607.938 307.788 607.807 307.752 607.689 307.679C607.333 307.459 607.215 306.979 607.427 306.608C617.959 288.067 630.294 283.395 657.19 274.594C657.583 274.464 658.001 274.695 658.126 275.106C658.25 275.518 658.032 275.956 657.639 276.085C631.117 284.762 618.963 289.358 608.711 307.405C608.574 307.651 608.325 307.788 608.069 307.788Z" fill="#29B2D6"/>
<path fill-rule="evenodd" clip-rule="evenodd" d="M602.474 415.785H584.69C578.407 415.785 573.016 411.224 571.837 404.917L566.101 374.248H621.062L615.327 404.917C614.148 411.224 608.756 415.785 602.474 415.785Z" fill="#F0B226"/>
<path fill-rule="evenodd" clip-rule="evenodd" d="M619.582 382.554H567.581C566.761 382.554 566.101 381.934 566.101 381.17C566.101 380.405 566.761 379.785 567.581 379.785H619.582C620.402 379.785 621.062 380.405 621.062 381.17C621.062 381.934 620.402 382.554 619.582 382.554Z" fill="#D6A324"/>
</svg>
