<?xml version="1.0" encoding="UTF-8"?>
<svg width="381px" height="115px" viewBox="0 0 381 115" version="1.1" xmlns="http://www.w3.org/2000/svg" xmlns:xlink="http://www.w3.org/1999/xlink">
    <!-- Generator: Sketch 60.1 (88133) - https://sketch.com -->
    <title>white-textandimage</title>
    <desc>Created with Sketch.</desc>
    <g id="Page-1" stroke="none" stroke-width="1" fill="none" fill-rule="evenodd">
        <g id="white-textandimage" transform="translate(0.924808, 0.885599)" fill="#FFFFFF" fill-rule="nonzero" stroke="#FFFFFF" stroke-width="0.6">
            <path d="M149.676774,81.459938 C151.633421,81.459938 153.456051,80.9707762 155.144664,79.9924526 C156.833278,79.014129 158.394575,77.7811733 159.828556,76.2935854 C161.262537,74.8059975 162.569202,73.1910936 163.748551,71.4488735 C164.9279,69.7066535 165.986634,68.0582453 166.924752,66.5036489 L166.924752,66.5036489 L165.437164,65.3779067 C165.329951,65.5655304 165.035114,66.0412905 164.552653,66.805187 C164.070192,67.5690835 163.460415,68.460296 162.723322,69.4788247 C161.986229,70.4973533 161.141922,71.5828904 160.190402,72.735436 C159.238882,73.8879816 158.233755,74.9467153 157.175021,75.9116372 C156.116287,76.8765591 155.037451,77.6739598 153.938512,78.3038393 C152.839573,78.9337189 151.767438,79.2486587 150.722106,79.2486587 C149.542757,79.2486587 148.551032,78.8667104 147.74693,78.1028139 C146.942829,77.3389175 146.540778,76.0858592 146.540778,74.3436391 C146.540778,72.9498631 146.768607,71.3081557 147.224264,69.4185171 C147.679922,67.5288784 148.309801,65.498522 149.113903,63.3274477 C149.918004,61.1563735 150.849422,58.8780858 151.908156,56.4925845 C152.966889,54.1070831 154.099332,51.7081802 155.305485,49.2958755 L155.305485,49.2958755 L168.693776,49.2958755 L169.497877,47.2052114 L156.391022,47.2052114 C157.570371,44.9269236 158.763122,42.7223452 159.969274,40.5914761 C161.175426,38.4606069 162.354775,36.4436522 163.507321,34.5406118 L163.507321,34.5406118 L161.698092,33.4550747 C160.65276,34.4199966 159.587326,35.5926447 158.501788,36.973019 C157.416251,38.3533934 156.411124,39.7270669 155.486408,41.0940395 C154.561691,42.4610122 153.757589,43.7073696 153.074103,44.8331118 C152.390617,45.958854 151.914857,46.7495539 151.646823,47.2052114 L151.646823,47.2052114 L144.610934,47.2052114 L143.806832,49.2958755 L150.480875,49.2958755 C148.899476,52.1906411 147.592811,54.897783 146.56088,57.4173012 C145.52895,59.9368195 144.704746,62.2084064 144.088268,64.232062 C143.47179,66.2557176 143.036235,68.0046385 142.781603,69.4788247 C142.526971,70.9530109 142.399655,72.0921548 142.399655,72.8962563 C142.399655,74.1292121 142.553774,75.2683559 142.862013,76.313688 C143.170252,77.35902 143.63261,78.2636343 144.249088,79.0275307 C144.865566,79.7914272 145.622762,80.3878025 146.520675,80.8166567 C147.418589,81.2455109 148.470622,81.459938 149.676774,81.459938 Z M175.005973,82.5454751 C176.587373,82.5454751 178.249183,82.2640395 179.991403,81.7011684 C181.733623,81.1382973 183.509347,80.2269822 185.318576,78.9672231 C187.127804,77.707464 188.943733,76.0657567 190.766364,74.0421011 C192.588994,72.0184455 194.384821,69.5324315 196.153844,66.5840591 L196.153844,66.5840591 L194.786872,65.3779067 C191.543662,70.5509601 188.287051,74.3302374 185.017038,76.7157387 C181.747025,79.10124 178.356396,80.2939907 174.845153,80.2939907 C173.799821,80.2939907 172.868403,80.106367 172.0509,79.7311196 C171.233397,79.3558722 170.54991,78.839907 170.000441,78.1832241 C169.450971,77.5265412 169.035519,76.7626447 168.754083,75.8915346 C168.472648,75.0204246 168.33193,74.1024087 168.33193,73.1374868 C168.33193,72.8158462 168.345332,72.4942055 168.372135,72.1725649 C168.398939,71.8509243 168.439144,71.5292837 168.49275,71.207643 C169.940133,71.1808397 171.467926,70.993216 173.076129,70.644772 C174.684332,70.2963279 176.279134,69.8272687 177.860534,69.2375942 C179.441933,68.6479197 180.956325,67.9309292 182.403707,67.0866225 C183.85109,66.2423159 185.124251,65.2907957 186.22319,64.232062 C187.322129,63.1733283 188.19994,62.0207827 188.856622,60.7744253 C189.513305,59.5280678 189.841647,58.1945994 189.841647,56.77402 C189.841647,55.728688 189.660724,54.8307746 189.298878,54.0802798 C188.937033,53.329785 188.467973,52.7267088 187.891701,52.2710512 C187.315428,51.8153937 186.665446,51.4803514 185.941754,51.2659243 C185.218063,51.0514972 184.507773,50.9442837 183.810885,50.9442837 C182.73875,50.9442837 181.505794,51.2056167 180.112018,51.7282827 C178.718242,52.2509487 177.290962,52.981341 175.830177,53.9194595 C174.369393,54.8575779 172.928711,55.990021 171.508131,57.3167886 C170.087552,58.6435561 168.827793,60.1110415 167.728854,61.7192446 C166.629915,63.3274477 165.738703,65.0629669 165.055216,66.9258022 C164.37173,68.7886375 164.029987,70.7251821 164.029987,72.735436 C164.029987,74.611673 164.385132,76.179671 165.095421,77.4394302 C165.805711,78.6991893 166.703624,79.7043162 167.789162,80.454811 C168.874699,81.2053058 170.060748,81.7413735 171.347311,82.0630141 C172.633873,82.3846548 173.853427,82.5454751 175.005973,82.5454751 Z M168.814391,69.4788247 C169.618493,67.1737335 170.670525,65.016061 171.97049,63.0058071 C173.270454,60.9955532 174.657529,59.2466323 176.131715,57.7590444 C177.605901,56.2714565 179.080088,55.1055093 180.554274,54.2612026 C182.02846,53.416896 183.355228,52.9947427 184.534577,52.9947427 C185.070644,52.9947427 185.533003,53.2091697 185.921652,53.6380239 C186.310301,54.0668781 186.504625,54.6431509 186.504625,55.3668423 C186.504625,56.0905337 186.317002,56.9080369 185.941754,57.819352 C185.566507,58.7306671 185.030439,59.6821873 184.333551,60.6739126 C183.636663,61.6656378 182.772254,62.6439614 181.740324,63.6088833 C180.708393,64.5738052 179.535745,65.4650177 178.222379,66.282521 C176.909013,67.1000242 175.461631,67.7902114 173.880231,68.3530825 C172.298831,68.9159536 170.610218,69.291201 168.814391,69.4788247 Z M203.028913,80.6558364 C204.342278,80.6558364 205.635542,80.3207941 206.908703,79.6507095 C208.181863,78.9806248 209.394717,78.1363182 210.547262,77.1177895 C211.699808,76.0992609 212.771943,74.9936212 213.763668,73.8008706 C214.755394,72.6081199 215.613102,71.4890786 216.336793,70.4437466 C217.060485,69.3984145 217.643458,68.507202 218.085714,67.7701089 C218.52797,67.0330158 218.789303,66.6108624 218.869713,66.5036489 L218.869713,66.5036489 L217.382125,65.3779067 C216.926468,66.0479914 216.3904,66.8386912 215.773922,67.7500063 C215.157444,68.6613214 214.467257,69.6061408 213.703361,70.5844643 C212.939464,71.5627879 212.128662,72.5277098 211.270954,73.47923 C210.413245,74.4307501 209.528733,75.2817576 208.617418,76.0322524 C207.706103,76.7827472 206.788087,77.3925242 205.863371,77.8615835 C204.938654,78.3306427 204.020638,78.5651723 203.109323,78.5651723 C201.74235,78.5651723 200.683616,78.0023012 199.933122,76.8765591 C199.182627,75.7508169 198.807379,74.0219985 198.807379,71.690104 C198.807379,70.9128058 198.800678,70.0617983 198.787277,69.1370815 C198.773875,68.2123647 198.874388,67.240742 199.088815,66.2222134 C199.571276,65.712949 200.040335,65.2505906 200.495993,64.8351382 C200.95165,64.4196857 201.447513,63.9573273 201.98358,63.448063 C202.519648,62.9387986 203.136126,62.3290216 203.833014,61.6187319 C204.529902,60.9084422 205.38761,59.9837254 206.406139,58.8445815 C207.424668,57.7054376 208.637521,56.3183624 210.044699,54.6833559 C211.451876,53.0483494 213.120387,51.0380955 215.050231,48.6525942 C216.015153,47.4732453 216.986775,46.1866828 217.965099,44.7929067 C218.943423,43.3991307 219.881541,41.9651496 220.779455,40.4909634 C221.677368,39.0167772 222.514974,37.5358901 223.292272,36.0483022 C224.06957,34.5607143 224.746356,33.1401349 225.322628,31.7865639 C225.898901,30.432993 226.354559,29.1799347 226.689601,28.0273891 C227.024643,26.8748436 227.192164,25.8831183 227.192164,25.0522134 C227.192164,23.846061 226.877225,23.0151561 226.247345,22.5594985 C225.617466,22.103841 224.833467,21.8760122 223.895348,21.8760122 C222.689196,21.8760122 221.349026,22.2914647 219.87484,23.1223696 C218.400654,23.9532746 216.86616,25.1058201 215.271359,26.5800063 C213.676557,28.0541925 212.054953,29.8031134 210.406544,31.826769 C208.758136,33.8504246 207.176736,36.0483022 205.662345,38.4204018 C204.147954,40.7925014 202.720674,43.2919171 201.380504,45.9186489 C200.040335,48.5453807 198.874388,51.2056167 197.882663,53.8993569 C196.890937,56.5930971 196.106938,59.2734357 195.530665,61.9403725 C194.954393,64.6073094 194.666256,67.1603318 194.666256,69.5994399 C194.666256,71.5560871 194.900786,73.2312986 195.369845,74.6250747 C195.838904,76.0188507 196.455382,77.1646955 197.219279,78.0626089 C197.983175,78.9605223 198.867687,79.6172052 199.872814,80.0326577 C200.877941,80.4481102 201.929974,80.6558364 203.028913,80.6558364 Z M199.812506,62.6439614 C200.375377,59.7223924 201.246487,56.7338149 202.425836,53.678229 C203.605185,50.622643 204.945355,47.660869 206.446344,44.7929067 C207.947334,41.9249445 209.548836,39.2312042 211.250851,36.711686 C212.952866,34.1921678 214.601274,31.9875893 216.196076,30.0979507 C217.790877,28.208312 219.271764,26.7140233 220.638737,25.6150845 C222.005709,24.5161456 223.104648,23.9666762 223.935553,23.9666762 C224.23039,23.9666762 224.485023,24.1475991 224.69945,24.5094448 C224.913877,24.8712905 225.02109,25.1594269 225.02109,25.373854 C225.02109,26.5532029 224.712851,27.9603807 224.096373,29.5953872 C223.479896,31.2303937 222.622187,33.0396222 221.523248,35.0230727 C220.42431,37.0065233 219.097542,39.1172899 217.542946,41.3553725 C215.988349,43.5934552 214.279634,45.8985464 212.416798,48.270646 C210.553963,50.6427456 208.557111,53.0416486 206.426242,55.467355 C204.295372,57.8930613 202.090794,60.2852635 199.812506,62.6439614 Z M226.950934,82.5454751 C228.532334,82.5454751 230.194144,82.2640395 231.936364,81.7011684 C233.678584,81.1382973 235.454308,80.2269822 237.263537,78.9672231 C239.072765,77.707464 240.888694,76.0657567 242.711325,74.0421011 C244.533955,72.0184455 246.329782,69.5324315 248.098805,66.5840591 L248.098805,66.5840591 L246.731832,65.3779067 C243.488623,70.5509601 240.232011,74.3302374 236.961998,76.7157387 C233.691985,79.10124 230.301357,80.2939907 226.790114,80.2939907 C225.744782,80.2939907 224.813364,80.106367 223.995861,79.7311196 C223.178358,79.3558722 222.494871,78.839907 221.945402,78.1832241 C221.395932,77.5265412 220.98048,76.7626447 220.699044,75.8915346 C220.417609,75.0204246 220.276891,74.1024087 220.276891,73.1374868 C220.276891,72.8158462 220.290293,72.4942055 220.317096,72.1725649 C220.3439,71.8509243 220.384105,71.5292837 220.437711,71.207643 C221.885094,71.1808397 223.412887,70.993216 225.02109,70.644772 C226.629293,70.2963279 228.224095,69.8272687 229.805495,69.2375942 C231.386894,68.6479197 232.901286,67.9309292 234.348668,67.0866225 C235.796051,66.2423159 237.069212,65.2907957 238.168151,64.232062 C239.26709,63.1733283 240.1449,62.0207827 240.801583,60.7744253 C241.458266,59.5280678 241.786608,58.1945994 241.786608,56.77402 C241.786608,55.728688 241.605685,54.8307746 241.243839,54.0802798 C240.881994,53.329785 240.412934,52.7267088 239.836662,52.2710512 C239.260389,51.8153937 238.610407,51.4803514 237.886715,51.2659243 C237.163024,51.0514972 236.452734,50.9442837 235.755846,50.9442837 C234.683711,50.9442837 233.450755,51.2056167 232.056979,51.7282827 C230.663203,52.2509487 229.235923,52.981341 227.775138,53.9194595 C226.314354,54.8575779 224.873672,55.990021 223.453092,57.3167886 C222.032513,58.6435561 220.772754,60.1110415 219.673815,61.7192446 C218.574876,63.3274477 217.683663,65.0629669 217.000177,66.9258022 C216.316691,68.7886375 215.974948,70.7251821 215.974948,72.735436 C215.974948,74.611673 216.330093,76.179671 217.040382,77.4394302 C217.750672,78.6991893 218.648585,79.7043162 219.734122,80.454811 C220.81966,81.2053058 222.005709,81.7413735 223.292272,82.0630141 C224.578834,82.3846548 225.798388,82.5454751 226.950934,82.5454751 Z M220.759352,69.4788247 C221.563454,67.1737335 222.615486,65.016061 223.915451,63.0058071 C225.215415,60.9955532 226.60249,59.2466323 228.076676,57.7590444 C229.550862,56.2714565 231.025049,55.1055093 232.499235,54.2612026 C233.973421,53.416896 235.300189,52.9947427 236.479538,52.9947427 C237.015605,52.9947427 237.477964,53.2091697 237.866613,53.6380239 C238.255262,54.0668781 238.449586,54.6431509 238.449586,55.3668423 C238.449586,56.0905337 238.261963,56.9080369 237.886715,57.819352 C237.511468,58.7306671 236.9754,59.6821873 236.278512,60.6739126 C235.581624,61.6656378 234.717215,62.6439614 233.685285,63.6088833 C232.653354,64.5738052 231.480706,65.4650177 230.16734,66.282521 C228.853974,67.1000242 227.406592,67.7902114 225.825192,68.3530825 C224.243792,68.9159536 222.555179,69.291201 220.759352,69.4788247 Z M244.198913,81.8217837 L250.310084,70.3231313 C251.757467,68.3396808 253.312064,66.3495294 254.973873,64.3526772 C256.635683,62.355825 258.324297,60.5532973 260.039713,58.9450942 C261.75513,57.3368911 263.463846,56.0302261 265.165861,55.0250991 C266.867876,54.0199721 268.48278,53.5174087 270.010573,53.5174087 C271.082708,53.5174087 271.618776,54.0668781 271.618776,55.1658169 C271.618776,55.7822947 271.397648,56.5394904 270.955392,57.4374038 C270.513136,58.3353172 269.963667,59.3337433 269.306984,60.4326821 C268.650301,61.5316209 267.93331,62.704269 267.156012,63.9506264 C266.378714,65.1969839 265.661723,66.4835464 265.00504,67.8103139 C264.348358,69.1370815 263.798888,70.4772508 263.356632,71.8308218 C262.914376,73.1843927 262.693248,74.5178611 262.693248,75.831227 C262.693248,76.9569692 262.86747,77.8883869 263.215914,78.62548 C263.564358,79.3625731 264.020016,79.9455467 264.582887,80.3744009 C265.145758,80.803255 265.775638,81.0980923 266.472526,81.2589126 C267.169414,81.4197329 267.866302,81.500143 268.56319,81.500143 C269.635325,81.500143 270.694059,81.1852033 271.739391,80.5553237 C272.784723,79.9254442 273.783149,79.1213426 274.734669,78.143019 C275.68619,77.1646955 276.584103,76.0858592 277.42841,74.9065102 C278.272716,73.7271613 279.036613,72.5813165 279.720099,71.4689761 C280.403585,70.3566356 280.999961,69.3515086 281.509225,68.4535952 C282.018489,67.5556818 282.42054,66.9056997 282.715377,66.5036489 L282.715377,66.5036489 L281.267995,65.3779067 C280.329876,66.9593065 279.318048,68.5809113 278.232511,70.2427212 C277.146974,71.9045311 276.061437,73.4122215 274.9759,74.7657925 C273.890363,76.1193634 272.824928,77.2317039 271.779596,78.1028139 C270.734264,78.973924 269.782744,79.409479 268.925036,79.409479 C268.201344,79.409479 267.698781,79.148146 267.417345,78.62548 C267.13591,78.1028139 266.995192,77.533242 266.995192,76.9167641 C266.995192,75.9250389 267.196217,74.8596043 267.598268,73.7204604 C268.000319,72.5813165 268.502882,71.4086684 269.105958,70.2025161 C269.709035,68.9963637 270.359017,67.763408 271.055905,66.5036489 C271.752793,65.2438898 272.402775,64.0109341 273.005851,62.8047817 C273.608927,61.5986294 274.111491,60.439383 274.513541,59.3270425 C274.915592,58.214702 275.116618,57.1760708 275.116618,56.2111489 C275.116618,55.6482778 275.042908,55.0854067 274.89549,54.5225356 C274.748071,53.9596645 274.493439,53.4436994 274.131593,52.9746401 C273.769747,52.5055809 273.273885,52.1236326 272.644005,51.8287954 C272.014126,51.5339581 271.216725,51.3865395 270.251803,51.3865395 C268.831224,51.3865395 267.363738,51.714881 265.849347,52.3715639 C264.334956,53.0282469 262.800462,53.9462628 261.245866,55.1256118 C259.691269,56.3049608 258.150075,57.7054376 256.622282,59.3270425 C255.094489,60.9486473 253.620302,62.7243716 252.199723,64.6542153 L252.199723,64.6542153 L257.104743,53.9194595 C258.659339,52.4452733 260.280944,50.843771 261.969557,49.1149526 C263.65817,47.3861343 265.326681,45.5970083 266.975089,43.7475747 C268.623497,41.8981411 270.191496,40.0353058 271.679083,38.1590688 C273.166671,36.2828318 274.473336,34.4602016 275.599079,32.6911782 C276.724821,30.9221548 277.622734,29.2402423 278.292819,27.6454409 C278.962903,26.0506395 279.297946,24.6233592 279.297946,23.3636001 C279.297946,22.1574477 278.969604,21.2260301 278.312921,20.5693471 C277.656238,19.9126642 276.738222,19.5843227 275.558873,19.5843227 C274.513541,19.5843227 273.47491,19.8590574 272.44298,20.4085268 C271.41105,20.9579962 270.412623,21.6883885 269.447702,22.5997036 C268.48278,23.5110187 267.544661,24.5563507 266.633346,25.7356997 C265.722031,26.9150486 264.871024,28.1480044 264.080324,29.4345669 C263.289624,30.7211294 262.552531,32.0076919 261.869044,33.2942544 C261.185558,34.5808169 260.589183,35.7735675 260.079918,36.8725063 C256.756299,43.9486001 253.51979,51.1118048 250.370392,58.3621206 C247.220994,65.6124363 243.94428,72.9498631 240.54025,80.3744009 L240.54025,80.3744009 L244.198913,81.8217837 Z M259.517047,48.4917739 C261.714925,43.5331476 263.57776,39.3518195 265.105553,35.9477895 C266.633346,32.5437596 267.986917,29.7830109 269.166266,27.6655434 C270.345615,25.548076 271.437853,24.0269839 272.44298,23.1022671 C273.448107,22.1775503 274.553747,21.7151919 275.759899,21.7151919 C276.188753,21.7151919 276.537197,21.8559096 276.805231,22.1373452 C277.073265,22.4187807 277.207282,22.800729 277.207282,23.2831899 C277.207282,24.0872915 276.838735,25.3135464 276.101642,26.9619546 C275.364549,28.6103628 274.258909,30.5469074 272.784723,32.7715884 C271.310537,34.9962693 269.467804,37.45548 267.256525,40.1492202 C265.045246,42.8429604 262.46542,45.6238117 259.517047,48.4917739 Z M290.836803,82.5454751 C292.418203,82.5454751 294.080013,82.2640395 295.822233,81.7011684 C297.564453,81.1382973 299.340177,80.2269822 301.149406,78.9672231 C302.958634,77.707464 304.774564,76.0657567 306.597194,74.0421011 C308.419824,72.0184455 310.215651,69.5324315 311.984674,66.5840591 L311.984674,66.5840591 L310.617702,65.3779067 C307.374492,70.5509601 304.117881,74.3302374 300.847868,76.7157387 C297.577855,79.10124 294.187226,80.2939907 290.675983,80.2939907 C289.630651,80.2939907 288.699233,80.106367 287.88173,79.7311196 C287.064227,79.3558722 286.38074,78.839907 285.831271,78.1832241 C285.281802,77.5265412 284.866349,76.7626447 284.584913,75.8915346 C284.303478,75.0204246 284.16276,74.1024087 284.16276,73.1374868 C284.16276,72.8158462 284.176162,72.4942055 284.202965,72.1725649 C284.229769,71.8509243 284.269974,71.5292837 284.32358,71.207643 C285.770963,71.1808397 287.298756,70.993216 288.906959,70.644772 C290.515163,70.2963279 292.109964,69.8272687 293.691364,69.2375942 C295.272763,68.6479197 296.787155,67.9309292 298.234538,67.0866225 C299.68192,66.2423159 300.955081,65.2907957 302.05402,64.232062 C303.152959,63.1733283 304.03077,62.0207827 304.687453,60.7744253 C305.344136,59.5280678 305.672477,58.1945994 305.672477,56.77402 C305.672477,55.728688 305.491554,54.8307746 305.129708,54.0802798 C304.767863,53.329785 304.298803,52.7267088 303.722531,52.2710512 C303.146258,51.8153937 302.496276,51.4803514 301.772584,51.2659243 C301.048893,51.0514972 300.338603,50.9442837 299.641715,50.9442837 C298.56958,50.9442837 297.336624,51.2056167 295.942848,51.7282827 C294.549072,52.2509487 293.121792,52.981341 291.661007,53.9194595 C290.200223,54.8575779 288.759541,55.990021 287.338961,57.3167886 C285.918382,58.6435561 284.658623,60.1110415 283.559684,61.7192446 C282.460745,63.3274477 281.569533,65.0629669 280.886046,66.9258022 C280.20256,68.7886375 279.860817,70.7251821 279.860817,72.735436 C279.860817,74.611673 280.215962,76.179671 280.926251,77.4394302 C281.636541,78.6991893 282.534455,79.7043162 283.619992,80.454811 C284.705529,81.2053058 285.891579,81.7413735 287.178141,82.0630141 C288.464704,82.3846548 289.684258,82.5454751 290.836803,82.5454751 Z M284.645221,69.4788247 C285.449323,67.1737335 286.501356,65.016061 287.80132,63.0058071 C289.101284,60.9955532 290.488359,59.2466323 291.962545,57.7590444 C293.436732,56.2714565 294.910918,55.1055093 296.385104,54.2612026 C297.85929,53.416896 299.186058,52.9947427 300.365407,52.9947427 C300.901474,52.9947427 301.363833,53.2091697 301.752482,53.6380239 C302.141131,54.0668781 302.335455,54.6431509 302.335455,55.3668423 C302.335455,56.0905337 302.147832,56.9080369 301.772584,57.819352 C301.397337,58.7306671 300.861269,59.6821873 300.164381,60.6739126 C299.467493,61.6656378 298.603084,62.6439614 297.571154,63.6088833 C296.539223,64.5738052 295.366575,65.4650177 294.053209,66.282521 C292.739844,67.1000242 291.292461,67.7902114 289.711061,68.3530825 C288.129661,68.9159536 286.441048,69.291201 284.645221,69.4788247 Z M315.241286,81.8217837 C316.206207,81.8217837 317.218035,81.6944676 318.276769,81.4398354 C319.335503,81.1852033 320.434441,80.7362466 321.573585,80.0929653 C322.712729,79.4496841 323.892078,78.578574 325.111632,77.4796352 C326.331186,76.3806964 327.611048,74.9869204 328.951217,73.2983071 C328.89761,73.5127342 328.864106,73.8008706 328.850705,74.1627163 C328.837303,74.524562 328.830602,74.7590916 328.830602,74.8663052 C328.830602,76.3940981 329.205849,77.6404555 329.956344,78.6053774 C330.706839,79.5702993 331.886188,80.0527602 333.494391,80.0527602 C334.59333,80.0527602 335.665465,79.8383331 336.710797,79.409479 C337.756129,78.9806248 338.754555,78.404352 339.706076,77.6806606 C340.657596,76.9569692 341.56221,76.1260643 342.419918,75.1879458 C343.277627,74.2498273 344.075027,73.2782046 344.812121,72.2730776 C345.549214,71.2679507 346.225999,70.2695246 346.842477,69.2777993 C347.458955,68.286074 347.995023,67.3613572 348.45068,66.5036489 L348.45068,66.5036489 L347.003297,65.3779067 C346.62805,65.9675812 346.172392,66.6845718 345.636325,67.5288784 C345.100257,68.373185 344.503882,69.2576968 343.847199,70.1824136 C343.190516,71.1071303 342.486927,72.0251463 341.736432,72.9364614 C340.985937,73.8477765 340.21534,74.6652798 339.42464,75.3889712 C338.63394,76.1126626 337.829839,76.7023371 337.012335,77.1579946 C336.194832,77.6136522 335.397431,77.8414809 334.620133,77.8414809 C334.084066,77.8414809 333.648511,77.7141649 333.313468,77.4595327 C332.978426,77.2049005 332.810905,76.6487303 332.810905,75.791022 C332.810905,74.9333136 333.005229,73.8812807 333.393878,72.6349233 C333.782527,71.3885659 334.27839,70.0617983 334.881466,68.6546206 C335.484542,67.2474428 336.154627,65.8067609 336.89172,64.3325747 C337.628813,62.8583885 338.359205,61.4445099 339.082897,60.0909389 C339.806588,58.737368 340.483374,57.4977114 341.113253,56.3719692 C341.743133,55.246227 342.232295,54.3349119 342.580739,53.6380239 L342.580739,53.6380239 L341.294176,53.0751528 C340.677698,53.7720408 340.074622,54.4555272 339.484948,55.1256118 C338.895273,55.7956964 338.332402,56.4657811 337.796334,57.1358657 C337.528301,55.4472524 336.764404,54.1941942 335.504645,53.3766909 C334.244886,52.5591876 332.382051,52.150436 329.916139,52.150436 C328.8172,52.150436 327.570843,52.324658 326.177067,52.673102 C324.783291,53.021546 323.315805,53.6045197 321.774611,54.4220229 C320.233416,55.2395262 318.665418,56.3183624 317.070617,57.6585317 C315.475815,58.998701 313.941321,60.6471092 312.467135,62.6037563 C310.724915,64.8820441 309.512062,67.0062124 308.828576,68.9762612 C308.145089,70.94631 307.803346,72.6952309 307.803346,74.2230239 C307.803346,75.4559796 307.997671,76.5415167 308.38632,77.4796352 C308.774969,78.4177537 309.311037,79.2084536 309.994523,79.8517348 C310.678009,80.4950161 311.468709,80.9841779 312.366622,81.3192202 C313.264536,81.6542625 314.222757,81.8217837 315.241286,81.8217837 Z M316.286618,79.6909145 C315.000055,79.6909145 314.00833,79.2754621 313.311442,78.4445571 C312.614554,77.6136522 312.26611,76.4343032 312.26611,74.9065102 C312.26611,73.1106834 312.768673,71.0937287 313.7738,68.855646 C314.778927,66.6175633 316.206207,64.3861815 318.055641,62.1615005 C319.288597,60.6873143 320.521552,59.4543585 321.754508,58.4626333 C322.987464,57.470908 324.186915,56.6735073 325.352863,56.0704311 C326.51881,55.467355 327.617749,55.0385008 328.649679,54.7838686 C329.681609,54.5292365 330.613027,54.4019204 331.443932,54.4019204 C332.596478,54.4019204 333.494391,54.6029458 334.137672,55.0049966 C334.780954,55.4070473 335.250013,55.8828074 335.54485,56.4322768 C335.839687,56.9817462 336.02061,57.5245148 336.087619,58.0605825 C336.154627,58.5966502 336.188131,58.9852993 336.188131,59.2265298 C335.78608,59.8162042 335.317021,60.5398956 334.780954,61.397604 C334.244886,62.2553123 333.695416,63.1465249 333.132545,64.0712417 C332.569674,64.9959585 332.033607,65.8938719 331.524342,66.7649819 C331.015078,67.6360919 330.586224,68.3530825 330.23778,68.9159536 C329.272858,70.1489093 328.281133,71.4019676 327.262604,72.6751284 C326.244075,73.9482892 325.17194,75.1075356 324.046198,76.1528677 C322.920455,77.1981997 321.714303,78.0492072 320.427741,78.7058901 C319.141178,79.3625731 317.760804,79.6909145 316.286618,79.6909145 Z M355.245338,80.6558364 C356.558704,80.6558364 357.851968,80.3207941 359.125128,79.6507095 C360.398289,78.9806248 361.611142,78.1363182 362.763688,77.1177895 C363.916233,76.0992609 364.988369,74.9936212 365.980094,73.8008706 C366.971819,72.6081199 367.829528,71.4890786 368.553219,70.4437466 C369.276911,69.3984145 369.859884,68.507202 370.30214,67.7701089 C370.744396,67.0330158 371.005729,66.6108624 371.086139,66.5036489 L371.086139,66.5036489 L369.598551,65.3779067 C369.142894,66.0479914 368.606826,66.8386912 367.990348,67.7500063 C367.37387,68.6613214 366.683683,69.6061408 365.919787,70.5844643 C365.15589,71.5627879 364.345088,72.5277098 363.487379,73.47923 C362.629671,74.4307501 361.745159,75.2817576 360.833844,76.0322524 C359.922529,76.7827472 359.004513,77.3925242 358.079796,77.8615835 C357.15508,78.3306427 356.237064,78.5651723 355.325748,78.5651723 C353.958776,78.5651723 352.900042,78.0023012 352.149547,76.8765591 C351.399052,75.7508169 351.023805,74.0219985 351.023805,71.690104 C351.023805,70.9128058 351.017104,70.0617983 351.003703,69.1370815 C350.990301,68.2123647 351.090814,67.240742 351.305241,66.2222134 C351.787702,65.712949 352.256761,65.2505906 352.712418,64.8351382 C353.168076,64.4196857 353.663939,63.9573273 354.200006,63.448063 C354.736074,62.9387986 355.352552,62.3290216 356.04944,61.6187319 C356.746328,60.9084422 357.604036,59.9837254 358.622565,58.8445815 C359.641094,57.7054376 360.853947,56.3183624 362.261124,54.6833559 C363.668302,53.0483494 365.336813,51.0380955 367.266657,48.6525942 C368.231579,47.4732453 369.203201,46.1866828 370.181525,44.7929067 C371.159848,43.3991307 372.097967,41.9651496 372.99588,40.4909634 C373.893794,39.0167772 374.7314,37.5358901 375.508698,36.0483022 C376.285996,34.5607143 376.962781,33.1401349 377.539054,31.7865639 C378.115327,30.432993 378.570984,29.1799347 378.906027,28.0273891 C379.241069,26.8748436 379.40859,25.8831183 379.40859,25.0522134 C379.40859,23.846061 379.09365,23.0151561 378.463771,22.5594985 C377.833891,22.103841 377.049892,21.8760122 376.111774,21.8760122 C374.905622,21.8760122 373.565452,22.2914647 372.091266,23.1223696 C370.61708,23.9532746 369.082586,25.1058201 367.487785,26.5800063 C365.892983,28.0541925 364.271378,29.8031134 362.62297,31.826769 C360.974562,33.8504246 359.393162,36.0483022 357.878771,38.4204018 C356.36438,40.7925014 354.937099,43.2919171 353.59693,45.9186489 C352.256761,48.5453807 351.090814,51.2056167 350.099088,53.8993569 C349.107363,56.5930971 348.323364,59.2734357 347.747091,61.9403725 C347.170818,64.6073094 346.882682,67.1603318 346.882682,69.5994399 C346.882682,71.5560871 347.117212,73.2312986 347.586271,74.6250747 C348.05533,76.0188507 348.671808,77.1646955 349.435705,78.0626089 C350.199601,78.9605223 351.084113,79.6172052 352.08924,80.0326577 C353.094367,80.4481102 354.1464,80.6558364 355.245338,80.6558364 Z M352.028932,62.6439614 C352.591803,59.7223924 353.462913,56.7338149 354.642262,53.678229 C355.821611,50.622643 357.16178,47.660869 358.66277,44.7929067 C360.16376,41.9249445 361.765262,39.2312042 363.467277,36.711686 C365.169292,34.1921678 366.8177,31.9875893 368.412501,30.0979507 C370.007303,28.208312 371.48819,26.7140233 372.855163,25.6150845 C374.222135,24.5161456 375.321074,23.9666762 376.151979,23.9666762 C376.446816,23.9666762 376.701448,24.1475991 376.915875,24.5094448 C377.130302,24.8712905 377.237516,25.1594269 377.237516,25.373854 C377.237516,26.5532029 376.929277,27.9603807 376.312799,29.5953872 C375.696321,31.2303937 374.838613,33.0396222 373.739674,35.0230727 C372.640735,37.0065233 371.313968,39.1172899 369.759372,41.3553725 C368.204775,43.5934552 366.496059,45.8985464 364.633224,48.270646 C362.770389,50.6427456 360.773537,53.0416486 358.642667,55.467355 C356.511798,57.8930613 354.30722,60.2852635 352.028932,62.6439614 Z" id="teleheal"></path>
            <path d="M116.325192,10.4044009 C102.957459,-2.89383185 81.4972329,-3.33422229 67.5951918,9.40440086 L67.5951918,9.40440086 L63.3751918,13.6244009 L59.1351918,9.36440086 L59.1351918,9.36440086 C45.2514511,-3.47735489 23.7040226,-3.06179531 10.3257491,10.3057304 C-3.05252442,23.6732562 -3.48540147,45.2203438 9.34519182,59.1144009 L9.34519182,59.1144009 L62.4451918,112.214401 L63.3851918,113.144401 L63.8151918,112.694401 L116.455192,60.1144009 L117.365192,59.1844009 L117.365192,59.1844009 C130.119784,45.2628789 129.661543,23.7696584 116.325192,10.4044009 Z M114.405192,58.2844009 L113.885192,58.8244009 L63.1351918,109.564401 L63.1351918,109.564401 L12.7751918,59.2044009 L12.7751918,59.2044009 L11.8751918,58.2844009 C11.6051918,58.0244009 11.3651918,57.7544009 11.1151918,57.4844009 L28.5651918,57.4844009 L28.5651918,57.4144009 L30.3251918,57.4144009 C31.0100497,57.3623429 31.6582956,57.7299457 31.9651918,58.3444009 C32.1565261,58.7302458 32.3235193,59.1276897 32.4651918,59.5344009 C32.6428757,60.0439496 32.8671582,60.536032 33.1351918,61.0044009 C33.5680804,61.8813575 34.3356468,62.5472298 35.2649344,62.8519759 C36.194222,63.1567221 37.2070482,63.0747032 38.0751918,62.6244009 C39.3028787,61.9012093 40.3575246,60.9182384 41.1651918,59.7444009 C41.2064586,59.7165079 41.2435037,59.6828304 41.2751918,59.6444009 C41.9885252,58.7310675 42.6885252,57.8110675 43.3751918,56.8844009 C43.0851918,57.8844009 42.8651918,58.8844009 42.7151918,59.7144009 C42.5436024,60.6016304 42.4432823,61.5011677 42.4151918,62.4044009 C42.406202,63.321617 42.5342821,64.2350304 42.7951918,65.1144009 C43.0087631,65.8946115 43.3797023,66.6228776 43.8851918,67.2544009 C44.3690927,67.8521598 44.9807288,68.3339514 45.6751918,68.6644009 C46.7016418,69.1173635 47.8327195,69.2799343 48.9451918,69.1344009 C50.25093,69.0156026 51.5126486,68.6018683 52.6351918,67.9244009 C53.930874,67.1478569 55.1178826,66.2029577 56.1651918,65.1144009 C56.9297617,64.3059728 57.6475943,63.4545899 58.3151918,62.5644009 C57.4551918,64.4844009 56.5951918,66.3944009 55.7051918,68.3244009 L58.5951918,69.4644009 L63.4051918,60.4044009 C64.5185252,58.8244009 65.7418585,57.2444009 67.0751918,55.6644009 C68.3216718,54.1652782 69.6574301,52.7426956 71.0751918,51.4044009 C72.2909552,50.2305762 73.6323867,49.1943204 75.0751918,48.3144009 C76.2297304,47.572834 77.5637076,47.158126 78.9351918,47.1144009 C79.2892802,47.0697615 79.6438397,47.193522 79.893237,47.4488106 C80.1426343,47.7040992 80.2580845,48.061451 80.2051918,48.4144009 C80.169143,49.0426606 79.9913688,49.6546141 79.6851918,50.2044009 C79.3351918,50.9144009 78.9051918,51.7044009 78.3851918,52.5644009 C77.8651918,53.4244009 77.2951918,54.3544009 76.6851918,55.3444009 C76.070408,56.3145324 75.506318,57.3158755 74.9951918,58.3444009 C74.4861378,59.3684065 74.0516752,60.4278268 73.6951918,61.5144009 C73.3527185,62.5296813 73.1738194,63.5929495 73.1651918,64.6644009 C73.1396263,65.4230943 73.2830886,66.1779793 73.5851918,66.8744009 C73.822811,67.4126848 74.1905007,67.8834651 74.6551918,68.2444009 C75.0968702,68.5803085 75.6046763,68.8188751 76.1451918,68.9444009 C76.6859277,69.0717067 77.2396732,69.1354714 77.7951918,69.1344009 C78.6836248,69.1208409 79.5514959,68.8649745 80.3051918,68.3944009 C80.8178702,68.0746562 81.3058999,67.7169906 81.7651918,67.3244009 C82.4102971,66.8408575 82.9769592,66.2607036 83.4451918,65.6044009 C83.4693258,65.5572871 83.4995885,65.5135743 83.5351918,65.4744009 L83.6251918,65.3344009 C84.5044223,64.1499638 85.2742516,62.8881131 85.9251918,61.5644009 L86.3551918,60.7544009 L86.4651918,60.5544009 C86.9147981,59.6227383 87.4864913,58.7551098 88.1651918,57.9744009 C88.3368119,57.7956205 88.5448393,57.6557988 88.7751918,57.5644009 C89.0022089,57.4748298 89.2416988,57.4208603 89.4851918,57.4044009 L89.4851918,57.4044009 L115.185192,57.4044009 C114.915192,57.7544009 114.665192,58.0244009 114.405192,58.2844009 Z M113.015192,54.8844009 L94.0151918,54.8844009 L94.0151918,54.8844009 L90.2951918,54.8844009 L90.0651918,54.8844009 C89.3026216,54.8498989 88.5408896,54.9689195 87.8251918,55.2344009 C86.8893167,55.6648794 86.1001246,56.3602028 85.5551918,57.2344009 C84.8529439,58.2583046 84.2246806,59.3310307 83.6751918,60.4444009 C83.2951918,61.1544009 82.9051918,61.8944009 82.4851918,62.5944009 C81.8417776,63.7428779 80.954251,64.7362251 79.8851918,65.5044009 L79.8851918,65.5044009 L79.7751918,65.5644009 L79.5751918,65.6444009 L79.2851918,65.7144009 L79.0551918,65.7144009 L78.6151918,65.7144009 L78.5351918,65.7144009 L78.2451918,65.6244009 L78.0751918,65.5244009 L77.9351918,65.4544009 L77.9351918,65.4544009 L77.6951918,65.2044009 L77.6951918,65.2044009 L77.6051918,65.0644009 L77.4351918,64.7544009 L77.4351918,64.7544009 C77.4389566,64.724519 77.4389566,64.6942827 77.4351918,64.6644009 C77.4351918,64.5444009 77.3551918,64.4144009 77.3251918,64.2844009 C77.2951918,64.1544009 77.2651918,63.9644009 77.2551918,63.9544009 C77.2402237,63.6946163 77.2402237,63.4341854 77.2551918,63.1744009 C77.2551918,62.9844009 77.3251918,62.8044009 77.3651918,62.6244009 C77.6574704,61.8600748 77.9913015,61.1122931 78.3651918,60.3844009 C78.8351918,59.3844009 79.3651918,58.4544009 79.9051918,57.4644009 C80.4451918,56.4744009 80.9651918,55.4644009 81.4351918,54.5444009 C81.8902334,53.6575445 82.2877217,52.7423193 82.6251918,51.8044009 C82.9280377,51.0223201 83.0905282,50.1929418 83.1051918,49.3544009 C83.1052357,48.9049928 83.0446904,48.4576302 82.9251918,48.0244009 C82.6929352,47.080594 82.0405349,46.2955021 81.1551918,45.8944009 C80.5575712,45.6435802 79.9129989,45.524215 79.2651918,45.5444009 C78.0671202,45.5623927 76.8857144,45.8279536 75.7951918,46.3244009 C74.4776749,46.8648203 73.2289436,47.5596788 72.0751918,48.3944009 C70.772226,49.3949533 69.5546994,50.5020998 68.4351918,51.7044009 C67.1873128,53.0319337 66.0218032,54.4345527 64.9451918,55.9044009 L68.8151918,47.4444009 C70.0351918,46.2844009 71.3118585,45.0210675 72.6451918,43.6544009 C73.9851918,42.2944009 75.2951918,40.8844009 76.6451918,39.4244009 C77.9951918,37.9644009 79.1851918,36.4944009 80.3551918,35.0244009 C81.5251918,33.5544009 82.5551918,32.1044009 83.4451918,30.7144009 C84.2630386,29.4430292 84.9722178,28.1049551 85.5651918,26.7144009 C86.0498129,25.6511855 86.3183456,24.5022737 86.3551918,23.3344009 C86.4055441,22.5272585 86.1278945,21.7339739 85.5851918,21.1344009 C84.9988743,20.5887316 84.2147319,20.306874 83.4151918,20.3544009 C82.5540173,20.3640109 81.7087129,20.5873637 80.9551918,21.0044009 C80.0963164,21.4754768 79.3028919,22.0570973 78.5951918,22.7344009 C77.7929569,23.4995968 77.0507678,24.3253657 76.3751918,25.2044009 C75.6541912,26.1393833 74.9864655,27.1142629 74.3751918,28.1244009 C73.7451918,29.1244009 73.1651918,30.1244009 72.6251918,31.1244009 C72.0851918,32.1244009 71.6251918,33.1244009 71.2151918,33.9444009 C68.5951918,39.5244009 66.0451918,45.1710675 63.5651918,50.8844009 C63.2451918,51.6244009 62.9051918,52.3844009 62.5651918,53.1244009 C61.8551918,54.3344009 61.1451918,55.5544009 60.4651918,56.7844009 C60.3451918,56.9744009 60.1951918,57.2244009 59.9851918,57.5444009 C59.6051918,58.1444009 59.1251918,58.8444009 58.5451918,59.6544009 C57.9651918,60.4644009 57.3051918,61.3044009 56.5451918,62.2144009 C55.7846719,63.1292966 54.9592001,63.9881884 54.0751918,64.7844009 C53.2958,65.5015855 52.4407812,66.1319522 51.5251918,66.6644009 C50.7599286,67.1350276 49.883354,67.3938587 48.9851918,67.4144009 C48.1143909,67.4390346 47.2705606,67.1108783 46.6451918,66.5044009 C45.9043056,65.6898188 45.5412321,64.6005982 45.6451918,63.5044009 C45.6746097,62.1951901 45.8524125,60.893539 46.1751918,59.6244009 C46.5792777,57.9971175 47.0767684,56.3944628 47.6651918,54.8244009 C48.3051918,53.1044009 49.0351918,51.3144009 49.8751918,49.4344009 C50.7151918,47.5544009 51.5951918,45.6644009 52.5551918,43.7544009 L63.1551918,43.7544009 L63.7851918,42.1144009 L53.4551918,42.1144009 C54.3885252,40.3144009 55.3285252,38.5744009 56.2751918,36.8944009 C57.2218585,35.2144009 58.1551918,33.6377342 59.0751918,32.1644009 L57.6451918,31.3144009 C56.7165922,32.1790619 55.8572871,33.1152698 55.0751918,34.1144009 C54.2251918,35.2044009 53.4351918,36.2844009 52.7051918,37.3644009 C51.9751918,38.4444009 51.3451918,39.4244009 50.8051918,40.3644009 C50.2651918,41.3044009 49.8851918,41.8744009 49.6751918,42.2344009 L44.1651918,42.2344009 L43.5351918,43.8744009 L48.7951918,43.8744009 C48.1951918,44.9944009 47.6351918,46.0644009 47.1351918,47.1044009 C44.6651918,50.7644009 42.1351918,54.4344009 39.4551918,57.8944009 C39.3962119,57.9669811 39.3427301,58.0438612 39.2951918,58.1244009 L39.0251918,58.4644009 C38.4325441,59.3361097 37.6361897,60.0500826 36.7051918,60.5444009 C36.1451918,60.7744009 35.6251918,60.4144009 35.1551918,59.4944009 C34.9851918,59.1444009 34.8351918,58.7544009 34.6951918,58.3944009 C34.4630844,57.5592484 34.0576102,56.7823735 33.5051918,56.1144009 C32.8550585,55.4548555 31.9962113,55.0413365 31.0751918,54.9444009 C30.9339445,54.8936372 30.7852681,54.8666052 30.6351918,54.8644009 L22.3851918,54.8644009 L22.3851918,54.8644009 L8.94519182,54.8644009 C-1.49391523,41.184649 0.484470486,21.7494132 13.4659211,10.4537279 C26.4473718,-0.84195732 45.9695191,-0.11520476 58.0751918,12.1144009 L63.1851918,17.2144009 L67.3151918,13.1144009 L67.3151918,13.1144009 L68.2551918,12.1844009 C80.4009888,0.152260864 99.7746554,-0.464887555 112.661619,10.7698335 C125.548582,22.0045546 127.578846,41.2814282 117.315192,54.9544009 L113.015192,54.8844009 Z M70.6651918,43.1644009 C72.3918585,39.2577342 73.8618585,35.9610675 75.0751918,33.2744009 C76.2885252,30.5877342 77.3551918,28.4110675 78.2751918,26.7444009 C78.9497774,25.4127645 79.8193592,24.1892832 80.8551918,23.1144009 C81.5491538,22.4224418 82.4852896,22.0279017 83.4651918,22.0144009 C83.7783007,22.0007094 84.0816705,22.1249814 84.2951918,22.3544009 C84.5167958,22.6002095 84.6318744,22.9238681 84.6151918,23.2544009 C84.5039024,24.2672068 84.2055111,25.2505419 83.7351918,26.1544009 C82.989865,27.7488192 82.1170296,29.2804614 81.1251918,30.7344009 C79.7699074,32.7427426 78.3147461,34.6818452 76.7651918,36.5444009 C74.8584099,38.8644092 72.8218183,41.0746119 70.6651918,43.1644009 L70.6651918,43.1644009 Z" id="Shape"></path>
        </g>
    </g>
</svg>